<mxfile host="app.diagrams.net" modified="2024-05-16T06:59:46.781Z" agent="Mozilla/5.0 (Windows NT 10.0; Win64; x64) AppleWebKit/537.36 (KHTML, like Gecko) Chrome/124.0.0.0 Safari/537.36" etag="dwEmmJWRM6vaLiF0W_9M" version="24.3.0" type="device">
  <diagram name="PÃ¡gina-1" id="g_19hTXpQWRkxg3kIoZ5">
    <mxGraphModel dx="1434" dy="1949" grid="1" gridSize="10" guides="1" tooltips="1" connect="1" arrows="1" fold="1" page="1" pageScale="1" pageWidth="827" pageHeight="1169" math="0" shadow="0">
      <root>
        <mxCell id="0" />
        <mxCell id="1" parent="0" />
        <mxCell id="-oi7KKOEsmIYbhZ6u3sG-11" value="" style="edgeStyle=orthogonalEdgeStyle;rounded=0;orthogonalLoop=1;jettySize=auto;html=1;" edge="1" parent="1" source="-oi7KKOEsmIYbhZ6u3sG-1" target="-oi7KKOEsmIYbhZ6u3sG-10">
          <mxGeometry relative="1" as="geometry" />
        </mxCell>
        <mxCell id="-oi7KKOEsmIYbhZ6u3sG-1" value="Invitado" style="shape=umlActor;verticalLabelPosition=bottom;verticalAlign=top;html=1;outlineConnect=0;" vertex="1" parent="1">
          <mxGeometry x="160" y="-20" width="30" height="60" as="geometry" />
        </mxCell>
        <mxCell id="-oi7KKOEsmIYbhZ6u3sG-15" style="edgeStyle=orthogonalEdgeStyle;rounded=0;orthogonalLoop=1;jettySize=auto;html=1;exitX=1;exitY=0.5;exitDx=0;exitDy=0;entryX=0;entryY=0.5;entryDx=0;entryDy=0;" edge="1" parent="1" source="-oi7KKOEsmIYbhZ6u3sG-23" target="-oi7KKOEsmIYbhZ6u3sG-14">
          <mxGeometry relative="1" as="geometry">
            <Array as="points">
              <mxPoint x="440" y="300" />
              <mxPoint x="440" y="-10" />
            </Array>
          </mxGeometry>
        </mxCell>
        <mxCell id="-oi7KKOEsmIYbhZ6u3sG-16" style="edgeStyle=orthogonalEdgeStyle;rounded=0;orthogonalLoop=1;jettySize=auto;html=1;exitX=1;exitY=0.5;exitDx=0;exitDy=0;entryX=0;entryY=0.5;entryDx=0;entryDy=0;" edge="1" parent="1" source="-oi7KKOEsmIYbhZ6u3sG-23" target="-oi7KKOEsmIYbhZ6u3sG-13">
          <mxGeometry relative="1" as="geometry" />
        </mxCell>
        <mxCell id="-oi7KKOEsmIYbhZ6u3sG-24" style="edgeStyle=orthogonalEdgeStyle;rounded=0;orthogonalLoop=1;jettySize=auto;html=1;exitX=0.5;exitY=0.5;exitDx=0;exitDy=0;exitPerimeter=0;entryX=0;entryY=0.5;entryDx=0;entryDy=0;" edge="1" parent="1" source="-oi7KKOEsmIYbhZ6u3sG-2" target="-oi7KKOEsmIYbhZ6u3sG-23">
          <mxGeometry relative="1" as="geometry" />
        </mxCell>
        <mxCell id="-oi7KKOEsmIYbhZ6u3sG-2" value="Usuario" style="shape=umlActor;verticalLabelPosition=bottom;verticalAlign=top;html=1;outlineConnect=0;" vertex="1" parent="1">
          <mxGeometry x="160" y="220" width="30" height="60" as="geometry" />
        </mxCell>
        <mxCell id="-oi7KKOEsmIYbhZ6u3sG-25" style="edgeStyle=orthogonalEdgeStyle;rounded=0;orthogonalLoop=1;jettySize=auto;html=1;exitX=0.5;exitY=0.5;exitDx=0;exitDy=0;exitPerimeter=0;entryX=0;entryY=0.5;entryDx=0;entryDy=0;" edge="1" parent="1" source="-oi7KKOEsmIYbhZ6u3sG-9" target="-oi7KKOEsmIYbhZ6u3sG-23">
          <mxGeometry relative="1" as="geometry" />
        </mxCell>
        <mxCell id="-oi7KKOEsmIYbhZ6u3sG-9" value="Administrador" style="shape=umlActor;verticalLabelPosition=bottom;verticalAlign=top;html=1;outlineConnect=0;" vertex="1" parent="1">
          <mxGeometry x="160" y="330" width="30" height="60" as="geometry" />
        </mxCell>
        <mxCell id="-oi7KKOEsmIYbhZ6u3sG-10" value="Registro" style="ellipse;whiteSpace=wrap;html=1;" vertex="1" parent="1">
          <mxGeometry x="280" y="-30" width="120" height="80" as="geometry" />
        </mxCell>
        <mxCell id="-oi7KKOEsmIYbhZ6u3sG-20" style="edgeStyle=orthogonalEdgeStyle;rounded=0;orthogonalLoop=1;jettySize=auto;html=1;exitX=1;exitY=0.5;exitDx=0;exitDy=0;entryX=0;entryY=0.5;entryDx=0;entryDy=0;" edge="1" parent="1" source="-oi7KKOEsmIYbhZ6u3sG-13" target="-oi7KKOEsmIYbhZ6u3sG-18">
          <mxGeometry relative="1" as="geometry" />
        </mxCell>
        <mxCell id="-oi7KKOEsmIYbhZ6u3sG-21" style="edgeStyle=orthogonalEdgeStyle;rounded=0;orthogonalLoop=1;jettySize=auto;html=1;exitX=1;exitY=0.5;exitDx=0;exitDy=0;entryX=0;entryY=0.5;entryDx=0;entryDy=0;" edge="1" parent="1" source="-oi7KKOEsmIYbhZ6u3sG-13" target="-oi7KKOEsmIYbhZ6u3sG-19">
          <mxGeometry relative="1" as="geometry" />
        </mxCell>
        <mxCell id="-oi7KKOEsmIYbhZ6u3sG-22" style="edgeStyle=orthogonalEdgeStyle;rounded=0;orthogonalLoop=1;jettySize=auto;html=1;exitX=1;exitY=0.5;exitDx=0;exitDy=0;entryX=0;entryY=0.5;entryDx=0;entryDy=0;" edge="1" parent="1" source="-oi7KKOEsmIYbhZ6u3sG-13" target="-oi7KKOEsmIYbhZ6u3sG-17">
          <mxGeometry relative="1" as="geometry" />
        </mxCell>
        <mxCell id="-oi7KKOEsmIYbhZ6u3sG-13" value="Ajustes" style="ellipse;whiteSpace=wrap;html=1;" vertex="1" parent="1">
          <mxGeometry x="520" y="430" width="120" height="80" as="geometry" />
        </mxCell>
        <mxCell id="-oi7KKOEsmIYbhZ6u3sG-40" style="edgeStyle=orthogonalEdgeStyle;rounded=0;orthogonalLoop=1;jettySize=auto;html=1;exitX=1;exitY=0.5;exitDx=0;exitDy=0;entryX=0;entryY=0.5;entryDx=0;entryDy=0;" edge="1" parent="1" source="-oi7KKOEsmIYbhZ6u3sG-14" target="-oi7KKOEsmIYbhZ6u3sG-38">
          <mxGeometry relative="1" as="geometry" />
        </mxCell>
        <mxCell id="-oi7KKOEsmIYbhZ6u3sG-47" style="edgeStyle=orthogonalEdgeStyle;rounded=0;orthogonalLoop=1;jettySize=auto;html=1;exitX=0.5;exitY=1;exitDx=0;exitDy=0;entryX=0.5;entryY=0;entryDx=0;entryDy=0;" edge="1" parent="1" source="-oi7KKOEsmIYbhZ6u3sG-14" target="-oi7KKOEsmIYbhZ6u3sG-44">
          <mxGeometry relative="1" as="geometry" />
        </mxCell>
        <mxCell id="-oi7KKOEsmIYbhZ6u3sG-48" style="edgeStyle=orthogonalEdgeStyle;rounded=0;orthogonalLoop=1;jettySize=auto;html=1;exitX=0.5;exitY=1;exitDx=0;exitDy=0;entryX=0.5;entryY=0;entryDx=0;entryDy=0;" edge="1" parent="1" source="-oi7KKOEsmIYbhZ6u3sG-14" target="-oi7KKOEsmIYbhZ6u3sG-45">
          <mxGeometry relative="1" as="geometry" />
        </mxCell>
        <mxCell id="-oi7KKOEsmIYbhZ6u3sG-14" value="Ver contenido de las listas" style="ellipse;whiteSpace=wrap;html=1;" vertex="1" parent="1">
          <mxGeometry x="590" y="-50" width="120" height="80" as="geometry" />
        </mxCell>
        <mxCell id="-oi7KKOEsmIYbhZ6u3sG-17" value="Ver perfil" style="ellipse;whiteSpace=wrap;html=1;" vertex="1" parent="1">
          <mxGeometry x="710" y="280" width="120" height="80" as="geometry" />
        </mxCell>
        <mxCell id="-oi7KKOEsmIYbhZ6u3sG-34" style="edgeStyle=orthogonalEdgeStyle;rounded=0;orthogonalLoop=1;jettySize=auto;html=1;exitX=1;exitY=0.5;exitDx=0;exitDy=0;entryX=0;entryY=0.5;entryDx=0;entryDy=0;" edge="1" parent="1" source="-oi7KKOEsmIYbhZ6u3sG-18" target="-oi7KKOEsmIYbhZ6u3sG-30">
          <mxGeometry relative="1" as="geometry" />
        </mxCell>
        <mxCell id="-oi7KKOEsmIYbhZ6u3sG-35" style="edgeStyle=orthogonalEdgeStyle;rounded=0;orthogonalLoop=1;jettySize=auto;html=1;exitX=1;exitY=0.5;exitDx=0;exitDy=0;entryX=0;entryY=0.5;entryDx=0;entryDy=0;" edge="1" parent="1" source="-oi7KKOEsmIYbhZ6u3sG-18" target="-oi7KKOEsmIYbhZ6u3sG-33">
          <mxGeometry relative="1" as="geometry" />
        </mxCell>
        <mxCell id="-oi7KKOEsmIYbhZ6u3sG-36" style="edgeStyle=orthogonalEdgeStyle;rounded=0;orthogonalLoop=1;jettySize=auto;html=1;exitX=1;exitY=0.5;exitDx=0;exitDy=0;entryX=0;entryY=0.5;entryDx=0;entryDy=0;" edge="1" parent="1" source="-oi7KKOEsmIYbhZ6u3sG-18" target="-oi7KKOEsmIYbhZ6u3sG-32">
          <mxGeometry relative="1" as="geometry" />
        </mxCell>
        <mxCell id="-oi7KKOEsmIYbhZ6u3sG-37" style="edgeStyle=orthogonalEdgeStyle;rounded=0;orthogonalLoop=1;jettySize=auto;html=1;exitX=1;exitY=0.5;exitDx=0;exitDy=0;entryX=0;entryY=0.5;entryDx=0;entryDy=0;" edge="1" parent="1" source="-oi7KKOEsmIYbhZ6u3sG-18" target="-oi7KKOEsmIYbhZ6u3sG-31">
          <mxGeometry relative="1" as="geometry" />
        </mxCell>
        <mxCell id="-oi7KKOEsmIYbhZ6u3sG-18" value="Ver lista personal" style="ellipse;whiteSpace=wrap;html=1;" vertex="1" parent="1">
          <mxGeometry x="710" y="430" width="120" height="80" as="geometry" />
        </mxCell>
        <mxCell id="-oi7KKOEsmIYbhZ6u3sG-28" style="edgeStyle=orthogonalEdgeStyle;rounded=0;orthogonalLoop=1;jettySize=auto;html=1;exitX=1;exitY=0.5;exitDx=0;exitDy=0;entryX=0;entryY=0.5;entryDx=0;entryDy=0;" edge="1" parent="1" source="-oi7KKOEsmIYbhZ6u3sG-19" target="-oi7KKOEsmIYbhZ6u3sG-26">
          <mxGeometry relative="1" as="geometry" />
        </mxCell>
        <mxCell id="-oi7KKOEsmIYbhZ6u3sG-19" value="Buscar usuarios" style="ellipse;whiteSpace=wrap;html=1;" vertex="1" parent="1">
          <mxGeometry x="710" y="670" width="120" height="80" as="geometry" />
        </mxCell>
        <mxCell id="-oi7KKOEsmIYbhZ6u3sG-23" value="Logueo" style="ellipse;whiteSpace=wrap;html=1;" vertex="1" parent="1">
          <mxGeometry x="240" y="260" width="120" height="80" as="geometry" />
        </mxCell>
        <mxCell id="-oi7KKOEsmIYbhZ6u3sG-29" style="edgeStyle=orthogonalEdgeStyle;rounded=0;orthogonalLoop=1;jettySize=auto;html=1;exitX=1;exitY=0.5;exitDx=0;exitDy=0;entryX=0;entryY=0.5;entryDx=0;entryDy=0;" edge="1" parent="1" source="-oi7KKOEsmIYbhZ6u3sG-26" target="-oi7KKOEsmIYbhZ6u3sG-27">
          <mxGeometry relative="1" as="geometry" />
        </mxCell>
        <mxCell id="-oi7KKOEsmIYbhZ6u3sG-26" value="Ver perfil usuario" style="ellipse;whiteSpace=wrap;html=1;" vertex="1" parent="1">
          <mxGeometry x="920" y="670" width="120" height="80" as="geometry" />
        </mxCell>
        <mxCell id="-oi7KKOEsmIYbhZ6u3sG-27" value="Ver su lista personal" style="ellipse;whiteSpace=wrap;html=1;" vertex="1" parent="1">
          <mxGeometry x="1130" y="670" width="120" height="80" as="geometry" />
        </mxCell>
        <mxCell id="-oi7KKOEsmIYbhZ6u3sG-30" value="Ver detalles" style="ellipse;whiteSpace=wrap;html=1;" vertex="1" parent="1">
          <mxGeometry x="1010" y="310" width="120" height="80" as="geometry" />
        </mxCell>
        <mxCell id="-oi7KKOEsmIYbhZ6u3sG-31" value="Editar contenido" style="ellipse;whiteSpace=wrap;html=1;" vertex="1" parent="1">
          <mxGeometry x="1010" y="550" width="120" height="80" as="geometry" />
        </mxCell>
        <mxCell id="-oi7KKOEsmIYbhZ6u3sG-32" value="Calificar" style="ellipse;whiteSpace=wrap;html=1;" vertex="1" parent="1">
          <mxGeometry x="1010" y="470" width="120" height="80" as="geometry" />
        </mxCell>
        <mxCell id="-oi7KKOEsmIYbhZ6u3sG-33" value="Eliminar contenido" style="ellipse;whiteSpace=wrap;html=1;" vertex="1" parent="1">
          <mxGeometry x="1010" y="390" width="120" height="80" as="geometry" />
        </mxCell>
        <mxCell id="-oi7KKOEsmIYbhZ6u3sG-41" style="edgeStyle=orthogonalEdgeStyle;rounded=0;orthogonalLoop=1;jettySize=auto;html=1;exitX=1;exitY=0.5;exitDx=0;exitDy=0;entryX=0;entryY=0.5;entryDx=0;entryDy=0;" edge="1" parent="1" source="-oi7KKOEsmIYbhZ6u3sG-38" target="-oi7KKOEsmIYbhZ6u3sG-39">
          <mxGeometry relative="1" as="geometry">
            <Array as="points">
              <mxPoint x="920" y="-10" />
              <mxPoint x="920" y="-70" />
            </Array>
          </mxGeometry>
        </mxCell>
        <mxCell id="-oi7KKOEsmIYbhZ6u3sG-43" style="edgeStyle=orthogonalEdgeStyle;rounded=0;orthogonalLoop=1;jettySize=auto;html=1;exitX=1;exitY=0.5;exitDx=0;exitDy=0;entryX=0;entryY=0.5;entryDx=0;entryDy=0;" edge="1" parent="1" source="-oi7KKOEsmIYbhZ6u3sG-38" target="-oi7KKOEsmIYbhZ6u3sG-42">
          <mxGeometry relative="1" as="geometry">
            <Array as="points">
              <mxPoint x="920" y="-10" />
              <mxPoint x="920" y="50" />
            </Array>
          </mxGeometry>
        </mxCell>
        <mxCell id="-oi7KKOEsmIYbhZ6u3sG-38" value="Ver detalles" style="ellipse;whiteSpace=wrap;html=1;" vertex="1" parent="1">
          <mxGeometry x="770" y="-50" width="120" height="80" as="geometry" />
        </mxCell>
        <mxCell id="-oi7KKOEsmIYbhZ6u3sG-39" value="Buscar segun criterio" style="ellipse;whiteSpace=wrap;html=1;" vertex="1" parent="1">
          <mxGeometry x="990" y="-110" width="120" height="80" as="geometry" />
        </mxCell>
        <mxCell id="-oi7KKOEsmIYbhZ6u3sG-42" value="AÃ±adir a lista personal" style="ellipse;whiteSpace=wrap;html=1;" vertex="1" parent="1">
          <mxGeometry x="990" y="10" width="120" height="80" as="geometry" />
        </mxCell>
        <mxCell id="-oi7KKOEsmIYbhZ6u3sG-44" value="AÃ±adir contenido" style="ellipse;whiteSpace=wrap;html=1;" vertex="1" parent="1">
          <mxGeometry x="510" y="140" width="120" height="80" as="geometry" />
        </mxCell>
        <mxCell id="-oi7KKOEsmIYbhZ6u3sG-45" value="Borrar contenido" style="ellipse;whiteSpace=wrap;html=1;" vertex="1" parent="1">
          <mxGeometry x="670" y="140" width="120" height="80" as="geometry" />
        </mxCell>
        <mxCell id="-oi7KKOEsmIYbhZ6u3sG-49" value="(SOLO ADMINISTRADOR)" style="text;html=1;align=center;verticalAlign=middle;whiteSpace=wrap;rounded=0;" vertex="1" parent="1">
          <mxGeometry x="560" y="50" width="60" height="30" as="geometry" />
        </mxCell>
        <mxCell id="-oi7KKOEsmIYbhZ6u3sG-50" value="Include" style="text;html=1;align=center;verticalAlign=middle;whiteSpace=wrap;rounded=0;rotation=90;" vertex="1" parent="1">
          <mxGeometry x="390" y="400" width="60" height="30" as="geometry" />
        </mxCell>
        <mxCell id="-oi7KKOEsmIYbhZ6u3sG-51" value="Include" style="text;html=1;align=center;verticalAlign=middle;whiteSpace=wrap;rounded=0;rotation=90;" vertex="1" parent="1">
          <mxGeometry x="390" y="180" width="60" height="30" as="geometry" />
        </mxCell>
        <mxCell id="-oi7KKOEsmIYbhZ6u3sG-52" value="Extends" style="text;html=1;align=center;verticalAlign=middle;whiteSpace=wrap;rounded=0;" vertex="1" parent="1">
          <mxGeometry x="920" y="-100" width="60" height="30" as="geometry" />
        </mxCell>
        <mxCell id="-oi7KKOEsmIYbhZ6u3sG-53" value="Include" style="text;html=1;align=center;verticalAlign=middle;whiteSpace=wrap;rounded=0;" vertex="1" parent="1">
          <mxGeometry x="920" y="50" width="60" height="30" as="geometry" />
        </mxCell>
        <mxCell id="-oi7KKOEsmIYbhZ6u3sG-54" value="Include" style="text;html=1;align=center;verticalAlign=middle;whiteSpace=wrap;rounded=0;" vertex="1" parent="1">
          <mxGeometry x="1050" y="680" width="60" height="30" as="geometry" />
        </mxCell>
        <mxCell id="-oi7KKOEsmIYbhZ6u3sG-55" value="Include" style="text;html=1;align=center;verticalAlign=middle;whiteSpace=wrap;rounded=0;" vertex="1" parent="1">
          <mxGeometry x="850" y="440" width="60" height="30" as="geometry" />
        </mxCell>
        <mxCell id="-oi7KKOEsmIYbhZ6u3sG-56" value="Include" style="text;html=1;align=center;verticalAlign=middle;whiteSpace=wrap;rounded=0;" vertex="1" parent="1">
          <mxGeometry x="840" y="680" width="60" height="30" as="geometry" />
        </mxCell>
        <mxCell id="-oi7KKOEsmIYbhZ6u3sG-57" value="Include" style="text;html=1;align=center;verticalAlign=middle;whiteSpace=wrap;rounded=0;" vertex="1" parent="1">
          <mxGeometry x="650" y="60" width="60" height="30" as="geometry" />
        </mxCell>
        <mxCell id="-oi7KKOEsmIYbhZ6u3sG-58" value="Extends" style="text;html=1;align=center;verticalAlign=middle;whiteSpace=wrap;rounded=0;" vertex="1" parent="1">
          <mxGeometry x="710" y="-40" width="60" height="30" as="geometry" />
        </mxCell>
      </root>
    </mxGraphModel>
  </diagram>
</mxfile>
